<mxfile host="www.draw.io" modified="2023-05-19T10:57:09.948Z" agent="Mozilla/5.0 (Macintosh; Intel Mac OS X 10_15_7) AppleWebKit/537.36 (KHTML, like Gecko) Chrome/113.0.0.0 Safari/537.36" etag="mtk9DxRFF27_Z3oxcdIg" version="21.1.5" type="device">
  <diagram name="Page-1" id="I6zNB5ZKsc4NOMEqYJPd">
    <mxGraphModel dx="2020" dy="1837" grid="1" gridSize="10" guides="1" tooltips="1" connect="1" arrows="1" fold="1" page="1" pageScale="1" pageWidth="827" pageHeight="1169" math="0" shadow="0">
      <root>
        <mxCell id="0" />
        <mxCell id="1" parent="0" />
        <mxCell id="zW1v7xUqAj8fTVgOFJWe-1" value="&lt;font style=&quot;font-size: 18px;&quot;&gt;user&lt;/font&gt;" style="rounded=0;whiteSpace=wrap;html=1;" parent="1" vertex="1">
          <mxGeometry x="350" y="150" width="120" height="60" as="geometry" />
        </mxCell>
        <mxCell id="zW1v7xUqAj8fTVgOFJWe-2" value="&lt;font style=&quot;font-size: 18px;&quot;&gt;real name&lt;/font&gt;" style="ellipse;whiteSpace=wrap;html=1;" parent="1" vertex="1">
          <mxGeometry x="340" width="90" height="40" as="geometry" />
        </mxCell>
        <mxCell id="zW1v7xUqAj8fTVgOFJWe-3" value="&lt;font style=&quot;font-size: 18px;&quot;&gt;date of birth&lt;/font&gt;" style="ellipse;whiteSpace=wrap;html=1;" parent="1" vertex="1">
          <mxGeometry x="440" y="65" width="90" height="40" as="geometry" />
        </mxCell>
        <mxCell id="zW1v7xUqAj8fTVgOFJWe-4" value="&lt;font style=&quot;font-size: 18px;&quot;&gt;description&lt;/font&gt;" style="ellipse;whiteSpace=wrap;html=1;" parent="1" vertex="1">
          <mxGeometry x="430" y="20" width="100" height="40" as="geometry" />
        </mxCell>
        <mxCell id="zW1v7xUqAj8fTVgOFJWe-5" value="&lt;font style=&quot;font-size: 18px;&quot;&gt;username&lt;/font&gt;" style="ellipse;whiteSpace=wrap;html=1;" parent="1" vertex="1">
          <mxGeometry x="560" y="210" width="100" height="40" as="geometry" />
        </mxCell>
        <mxCell id="zW1v7xUqAj8fTVgOFJWe-6" value="&lt;font style=&quot;font-size: 18px;&quot;&gt;salt&lt;/font&gt;" style="ellipse;whiteSpace=wrap;html=1;" parent="1" vertex="1">
          <mxGeometry x="390" y="230" width="60" height="40" as="geometry" />
        </mxCell>
        <mxCell id="zW1v7xUqAj8fTVgOFJWe-7" value="&lt;font style=&quot;font-size: 18px;&quot;&gt;iterations&lt;/font&gt;" style="ellipse;whiteSpace=wrap;html=1;" parent="1" vertex="1">
          <mxGeometry x="500" y="165" width="100" height="40" as="geometry" />
        </mxCell>
        <mxCell id="zW1v7xUqAj8fTVgOFJWe-9" value="&lt;font style=&quot;font-size: 18px;&quot;&gt;hashed password&lt;/font&gt;" style="ellipse;whiteSpace=wrap;html=1;" parent="1" vertex="1">
          <mxGeometry x="580" y="125" width="100" height="60" as="geometry" />
        </mxCell>
        <mxCell id="zW1v7xUqAj8fTVgOFJWe-18" value="&lt;font style=&quot;font-size: 18px;&quot;&gt;icon&lt;/font&gt;" style="rounded=0;whiteSpace=wrap;html=1;" parent="1" vertex="1">
          <mxGeometry x="640" y="20" width="120" height="60" as="geometry" />
        </mxCell>
        <mxCell id="zW1v7xUqAj8fTVgOFJWe-19" value="&lt;font style=&quot;font-size: 18px;&quot;&gt;use&lt;/font&gt;" style="rhombus;whiteSpace=wrap;html=1;" parent="1" vertex="1">
          <mxGeometry x="530" y="70" width="80" height="80" as="geometry" />
        </mxCell>
        <mxCell id="zW1v7xUqAj8fTVgOFJWe-20" value="" style="endArrow=none;html=1;rounded=0;entryX=0;entryY=1;entryDx=0;entryDy=0;exitX=1;exitY=0;exitDx=0;exitDy=0;" parent="1" source="zW1v7xUqAj8fTVgOFJWe-1" target="zW1v7xUqAj8fTVgOFJWe-19" edge="1">
          <mxGeometry width="50" height="50" relative="1" as="geometry">
            <mxPoint x="510" y="160" as="sourcePoint" />
            <mxPoint x="760" y="190" as="targetPoint" />
          </mxGeometry>
        </mxCell>
        <mxCell id="zW1v7xUqAj8fTVgOFJWe-22" value="" style="endArrow=none;html=1;rounded=0;exitX=1;exitY=0;exitDx=0;exitDy=0;entryX=0;entryY=1;entryDx=0;entryDy=0;" parent="1" source="zW1v7xUqAj8fTVgOFJWe-19" target="zW1v7xUqAj8fTVgOFJWe-18" edge="1">
          <mxGeometry width="50" height="50" relative="1" as="geometry">
            <mxPoint x="600" y="-10" as="sourcePoint" />
            <mxPoint x="770" y="50" as="targetPoint" />
          </mxGeometry>
        </mxCell>
        <mxCell id="zW1v7xUqAj8fTVgOFJWe-23" value="&lt;font style=&quot;font-size: 18px;&quot;&gt;(1,1)&lt;/font&gt;" style="text;html=1;strokeColor=none;fillColor=none;align=center;verticalAlign=middle;whiteSpace=wrap;rounded=0;" parent="1" vertex="1">
          <mxGeometry x="480" y="115" width="60" height="30" as="geometry" />
        </mxCell>
        <mxCell id="zW1v7xUqAj8fTVgOFJWe-24" value="&lt;font style=&quot;font-size: 18px;&quot;&gt;(0,*)&lt;/font&gt;" style="text;html=1;strokeColor=none;fillColor=none;align=center;verticalAlign=middle;whiteSpace=wrap;rounded=0;" parent="1" vertex="1">
          <mxGeometry x="600" y="80" width="60" height="30" as="geometry" />
        </mxCell>
        <mxCell id="zW1v7xUqAj8fTVgOFJWe-26" value="&lt;font style=&quot;font-size: 18px;&quot;&gt;filename&lt;/font&gt;" style="ellipse;whiteSpace=wrap;html=1;" parent="1" vertex="1">
          <mxGeometry x="655" y="-60" width="90" height="40" as="geometry" />
        </mxCell>
        <mxCell id="zW1v7xUqAj8fTVgOFJWe-27" value="" style="endArrow=none;html=1;rounded=0;entryX=0.5;entryY=1;entryDx=0;entryDy=0;exitX=0.5;exitY=0;exitDx=0;exitDy=0;" parent="1" source="zW1v7xUqAj8fTVgOFJWe-18" target="zW1v7xUqAj8fTVgOFJWe-26" edge="1">
          <mxGeometry width="50" height="50" relative="1" as="geometry">
            <mxPoint x="720" y="100" as="sourcePoint" />
            <mxPoint x="770" y="50" as="targetPoint" />
          </mxGeometry>
        </mxCell>
        <mxCell id="zW1v7xUqAj8fTVgOFJWe-29" value="&lt;font style=&quot;font-size: 18px;&quot;&gt;article&lt;/font&gt;" style="rounded=0;whiteSpace=wrap;html=1;" parent="1" vertex="1">
          <mxGeometry x="80" y="40" width="120" height="60" as="geometry" />
        </mxCell>
        <mxCell id="zW1v7xUqAj8fTVgOFJWe-31" value="&lt;font style=&quot;font-size: 18px;&quot;&gt;write&lt;/font&gt;" style="rhombus;whiteSpace=wrap;html=1;" parent="1" vertex="1">
          <mxGeometry x="270" width="80" height="80" as="geometry" />
        </mxCell>
        <mxCell id="zW1v7xUqAj8fTVgOFJWe-32" value="" style="endArrow=none;html=1;rounded=0;exitX=1;exitY=0;exitDx=0;exitDy=0;entryX=0;entryY=0.5;entryDx=0;entryDy=0;" parent="1" source="zW1v7xUqAj8fTVgOFJWe-29" target="zW1v7xUqAj8fTVgOFJWe-31" edge="1">
          <mxGeometry width="50" height="50" relative="1" as="geometry">
            <mxPoint x="440" y="140" as="sourcePoint" />
            <mxPoint x="490" y="90" as="targetPoint" />
          </mxGeometry>
        </mxCell>
        <mxCell id="zW1v7xUqAj8fTVgOFJWe-33" value="" style="endArrow=none;html=1;rounded=0;exitX=0;exitY=0;exitDx=0;exitDy=0;entryX=1;entryY=1;entryDx=0;entryDy=0;" parent="1" source="zW1v7xUqAj8fTVgOFJWe-1" target="zW1v7xUqAj8fTVgOFJWe-31" edge="1">
          <mxGeometry width="50" height="50" relative="1" as="geometry">
            <mxPoint x="440" y="140" as="sourcePoint" />
            <mxPoint x="490" y="90" as="targetPoint" />
          </mxGeometry>
        </mxCell>
        <mxCell id="zW1v7xUqAj8fTVgOFJWe-34" value="&lt;font style=&quot;font-size: 18px;&quot;&gt;(1,1)&lt;/font&gt;" style="text;html=1;strokeColor=none;fillColor=none;align=center;verticalAlign=middle;whiteSpace=wrap;rounded=0;" parent="1" vertex="1">
          <mxGeometry x="210" y="10" width="60" height="30" as="geometry" />
        </mxCell>
        <mxCell id="zW1v7xUqAj8fTVgOFJWe-35" value="&lt;font style=&quot;font-size: 18px;&quot;&gt;(0,*)&lt;/font&gt;" style="text;html=1;strokeColor=none;fillColor=none;align=center;verticalAlign=middle;whiteSpace=wrap;rounded=0;" parent="1" vertex="1">
          <mxGeometry x="330" y="70" width="60" height="30" as="geometry" />
        </mxCell>
        <mxCell id="zW1v7xUqAj8fTVgOFJWe-36" value="&lt;font style=&quot;font-size: 18px;&quot;&gt;comments&lt;/font&gt;" style="rounded=0;whiteSpace=wrap;html=1;" parent="1" vertex="1">
          <mxGeometry x="-50" y="305" width="120" height="60" as="geometry" />
        </mxCell>
        <mxCell id="zW1v7xUqAj8fTVgOFJWe-38" value="&lt;font style=&quot;font-size: 18px;&quot;&gt;write&lt;/font&gt;" style="rhombus;whiteSpace=wrap;html=1;" parent="1" vertex="1">
          <mxGeometry x="200" y="265" width="80" height="80" as="geometry" />
        </mxCell>
        <mxCell id="zW1v7xUqAj8fTVgOFJWe-39" value="" style="endArrow=none;html=1;rounded=0;exitX=0;exitY=1;exitDx=0;exitDy=0;entryX=1;entryY=0.5;entryDx=0;entryDy=0;" parent="1" source="zW1v7xUqAj8fTVgOFJWe-1" target="zW1v7xUqAj8fTVgOFJWe-38" edge="1">
          <mxGeometry width="50" height="50" relative="1" as="geometry">
            <mxPoint x="440" y="140" as="sourcePoint" />
            <mxPoint x="490" y="90" as="targetPoint" />
          </mxGeometry>
        </mxCell>
        <mxCell id="zW1v7xUqAj8fTVgOFJWe-40" value="" style="endArrow=none;html=1;rounded=0;exitX=1;exitY=1;exitDx=0;exitDy=0;entryX=0;entryY=0.5;entryDx=0;entryDy=0;" parent="1" source="zW1v7xUqAj8fTVgOFJWe-36" target="zW1v7xUqAj8fTVgOFJWe-38" edge="1">
          <mxGeometry width="50" height="50" relative="1" as="geometry">
            <mxPoint x="310" y="205" as="sourcePoint" />
            <mxPoint x="120" y="305" as="targetPoint" />
          </mxGeometry>
        </mxCell>
        <mxCell id="zW1v7xUqAj8fTVgOFJWe-41" value="&lt;font style=&quot;font-size: 18px;&quot;&gt;(1,1)&lt;/font&gt;" style="text;html=1;strokeColor=none;fillColor=none;align=center;verticalAlign=middle;whiteSpace=wrap;rounded=0;" parent="1" vertex="1">
          <mxGeometry x="80" y="345" width="60" height="30" as="geometry" />
        </mxCell>
        <mxCell id="zW1v7xUqAj8fTVgOFJWe-43" value="&lt;font style=&quot;font-size: 18px;&quot;&gt;(0,*)&lt;/font&gt;" style="text;html=1;strokeColor=none;fillColor=none;align=center;verticalAlign=middle;whiteSpace=wrap;rounded=0;" parent="1" vertex="1">
          <mxGeometry x="290" y="275" width="60" height="30" as="geometry" />
        </mxCell>
        <mxCell id="zW1v7xUqAj8fTVgOFJWe-44" value="&lt;font style=&quot;font-size: 18px;&quot;&gt;like&lt;/font&gt;" style="rhombus;whiteSpace=wrap;html=1;" parent="1" vertex="1">
          <mxGeometry x="230" y="80" width="80" height="80" as="geometry" />
        </mxCell>
        <mxCell id="zW1v7xUqAj8fTVgOFJWe-45" value="" style="endArrow=none;html=1;rounded=0;exitX=1;exitY=1;exitDx=0;exitDy=0;entryX=0;entryY=0.5;entryDx=0;entryDy=0;" parent="1" source="zW1v7xUqAj8fTVgOFJWe-29" target="zW1v7xUqAj8fTVgOFJWe-44" edge="1">
          <mxGeometry width="50" height="50" relative="1" as="geometry">
            <mxPoint x="440" y="140" as="sourcePoint" />
            <mxPoint x="490" y="90" as="targetPoint" />
          </mxGeometry>
        </mxCell>
        <mxCell id="zW1v7xUqAj8fTVgOFJWe-46" value="" style="endArrow=none;html=1;rounded=0;entryX=1;entryY=1;entryDx=0;entryDy=0;exitX=0;exitY=0;exitDx=0;exitDy=0;" parent="1" source="zW1v7xUqAj8fTVgOFJWe-1" target="zW1v7xUqAj8fTVgOFJWe-44" edge="1">
          <mxGeometry width="50" height="50" relative="1" as="geometry">
            <mxPoint x="440" y="140" as="sourcePoint" />
            <mxPoint x="490" y="90" as="targetPoint" />
          </mxGeometry>
        </mxCell>
        <mxCell id="zW1v7xUqAj8fTVgOFJWe-47" value="&lt;font style=&quot;font-size: 18px;&quot;&gt;(0,*)&lt;/font&gt;" style="text;html=1;strokeColor=none;fillColor=none;align=center;verticalAlign=middle;whiteSpace=wrap;rounded=0;" parent="1" vertex="1">
          <mxGeometry x="120" y="100" width="60" height="30" as="geometry" />
        </mxCell>
        <mxCell id="zW1v7xUqAj8fTVgOFJWe-48" value="&lt;font style=&quot;font-size: 18px;&quot;&gt;(0,*)&lt;/font&gt;" style="text;html=1;strokeColor=none;fillColor=none;align=center;verticalAlign=middle;whiteSpace=wrap;rounded=0;" parent="1" vertex="1">
          <mxGeometry x="280" y="140" width="60" height="30" as="geometry" />
        </mxCell>
        <mxCell id="zW1v7xUqAj8fTVgOFJWe-49" value="&lt;font style=&quot;font-size: 18px;&quot;&gt;belong to&amp;nbsp;&lt;/font&gt;" style="rhombus;whiteSpace=wrap;html=1;" parent="1" vertex="1">
          <mxGeometry x="-100" y="85" width="80" height="80" as="geometry" />
        </mxCell>
        <mxCell id="zW1v7xUqAj8fTVgOFJWe-50" value="" style="endArrow=none;html=1;rounded=0;exitX=0.5;exitY=1;exitDx=0;exitDy=0;entryX=0;entryY=0;entryDx=0;entryDy=0;" parent="1" source="zW1v7xUqAj8fTVgOFJWe-49" target="zW1v7xUqAj8fTVgOFJWe-36" edge="1">
          <mxGeometry width="50" height="50" relative="1" as="geometry">
            <mxPoint x="-20" y="240" as="sourcePoint" />
            <mxPoint x="440" y="135" as="targetPoint" />
          </mxGeometry>
        </mxCell>
        <mxCell id="zW1v7xUqAj8fTVgOFJWe-51" value="" style="endArrow=none;html=1;rounded=0;entryX=1;entryY=0;entryDx=0;entryDy=0;exitX=0;exitY=1;exitDx=0;exitDy=0;" parent="1" source="zW1v7xUqAj8fTVgOFJWe-29" target="zW1v7xUqAj8fTVgOFJWe-49" edge="1">
          <mxGeometry width="50" height="50" relative="1" as="geometry">
            <mxPoint x="440" y="120" as="sourcePoint" />
            <mxPoint x="490" y="70" as="targetPoint" />
          </mxGeometry>
        </mxCell>
        <mxCell id="zW1v7xUqAj8fTVgOFJWe-52" value="&lt;font style=&quot;font-size: 18px;&quot;&gt;(0,1)&lt;/font&gt;" style="text;html=1;strokeColor=none;fillColor=none;align=center;verticalAlign=middle;whiteSpace=wrap;rounded=0;" parent="1" vertex="1">
          <mxGeometry x="-110" y="175" width="60" height="30" as="geometry" />
        </mxCell>
        <mxCell id="zW1v7xUqAj8fTVgOFJWe-53" value="&lt;font style=&quot;font-size: 18px;&quot;&gt;(0,*)&lt;/font&gt;" style="text;html=1;strokeColor=none;fillColor=none;align=center;verticalAlign=middle;whiteSpace=wrap;rounded=0;" parent="1" vertex="1">
          <mxGeometry x="-50" y="70" width="60" height="30" as="geometry" />
        </mxCell>
        <mxCell id="zW1v7xUqAj8fTVgOFJWe-58" value="&lt;font style=&quot;font-size: 18px;&quot;&gt;*parent_id&lt;/font&gt;" style="ellipse;whiteSpace=wrap;html=1;" parent="1" vertex="1">
          <mxGeometry x="-10" y="405" width="100" height="60" as="geometry" />
        </mxCell>
        <mxCell id="zW1v7xUqAj8fTVgOFJWe-60" value="&lt;font style=&quot;font-size: 18px;&quot;&gt;subscribe&lt;/font&gt;" style="rhombus;whiteSpace=wrap;html=1;" parent="1" vertex="1">
          <mxGeometry x="480" y="260" width="100" height="80" as="geometry" />
        </mxCell>
        <mxCell id="zW1v7xUqAj8fTVgOFJWe-61" value="" style="endArrow=none;html=1;rounded=0;entryX=0.5;entryY=0;entryDx=0;entryDy=0;exitX=1;exitY=1;exitDx=0;exitDy=0;" parent="1" source="zW1v7xUqAj8fTVgOFJWe-1" target="zW1v7xUqAj8fTVgOFJWe-60" edge="1">
          <mxGeometry width="50" height="50" relative="1" as="geometry">
            <mxPoint x="500" y="240" as="sourcePoint" />
            <mxPoint x="520" y="200" as="targetPoint" />
          </mxGeometry>
        </mxCell>
        <mxCell id="zW1v7xUqAj8fTVgOFJWe-62" value="" style="endArrow=none;html=1;rounded=0;exitX=0.75;exitY=1;exitDx=0;exitDy=0;entryX=0;entryY=0;entryDx=0;entryDy=0;" parent="1" source="zW1v7xUqAj8fTVgOFJWe-1" target="zW1v7xUqAj8fTVgOFJWe-60" edge="1">
          <mxGeometry width="50" height="50" relative="1" as="geometry">
            <mxPoint x="470" y="240" as="sourcePoint" />
            <mxPoint x="520" y="200" as="targetPoint" />
          </mxGeometry>
        </mxCell>
        <mxCell id="zW1v7xUqAj8fTVgOFJWe-63" value="&lt;font style=&quot;font-size: 18px;&quot;&gt;(0,*)&lt;/font&gt;" style="text;html=1;strokeColor=none;fillColor=none;align=center;verticalAlign=middle;whiteSpace=wrap;rounded=0;" parent="1" vertex="1">
          <mxGeometry x="510" y="220" width="60" height="30" as="geometry" />
        </mxCell>
        <mxCell id="zW1v7xUqAj8fTVgOFJWe-64" value="&lt;font style=&quot;font-size: 18px;&quot;&gt;(0,*)&lt;/font&gt;" style="text;html=1;strokeColor=none;fillColor=none;align=center;verticalAlign=middle;whiteSpace=wrap;rounded=0;" parent="1" vertex="1">
          <mxGeometry x="440" y="255" width="60" height="30" as="geometry" />
        </mxCell>
        <mxCell id="zW1v7xUqAj8fTVgOFJWe-65" value="" style="endArrow=none;html=1;rounded=0;entryX=0.5;entryY=1;entryDx=0;entryDy=0;exitX=0.25;exitY=0;exitDx=0;exitDy=0;" parent="1" source="zW1v7xUqAj8fTVgOFJWe-1" target="zW1v7xUqAj8fTVgOFJWe-2" edge="1">
          <mxGeometry width="50" height="50" relative="1" as="geometry">
            <mxPoint x="340" y="120" as="sourcePoint" />
            <mxPoint x="390" y="70" as="targetPoint" />
          </mxGeometry>
        </mxCell>
        <mxCell id="zW1v7xUqAj8fTVgOFJWe-66" value="" style="endArrow=none;html=1;rounded=0;entryX=0;entryY=1;entryDx=0;entryDy=0;exitX=0.5;exitY=0;exitDx=0;exitDy=0;" parent="1" source="zW1v7xUqAj8fTVgOFJWe-1" target="zW1v7xUqAj8fTVgOFJWe-4" edge="1">
          <mxGeometry width="50" height="50" relative="1" as="geometry">
            <mxPoint x="340" y="120" as="sourcePoint" />
            <mxPoint x="390" y="70" as="targetPoint" />
          </mxGeometry>
        </mxCell>
        <mxCell id="zW1v7xUqAj8fTVgOFJWe-67" value="" style="endArrow=none;html=1;rounded=0;entryX=0;entryY=1;entryDx=0;entryDy=0;exitX=0.75;exitY=0;exitDx=0;exitDy=0;" parent="1" source="zW1v7xUqAj8fTVgOFJWe-1" target="zW1v7xUqAj8fTVgOFJWe-3" edge="1">
          <mxGeometry width="50" height="50" relative="1" as="geometry">
            <mxPoint x="340" y="120" as="sourcePoint" />
            <mxPoint x="390" y="70" as="targetPoint" />
          </mxGeometry>
        </mxCell>
        <mxCell id="zW1v7xUqAj8fTVgOFJWe-68" value="" style="endArrow=none;html=1;rounded=0;entryX=0;entryY=0.5;entryDx=0;entryDy=0;exitX=1;exitY=0.25;exitDx=0;exitDy=0;" parent="1" source="zW1v7xUqAj8fTVgOFJWe-1" target="zW1v7xUqAj8fTVgOFJWe-9" edge="1">
          <mxGeometry width="50" height="50" relative="1" as="geometry">
            <mxPoint x="340" y="120" as="sourcePoint" />
            <mxPoint x="390" y="70" as="targetPoint" />
          </mxGeometry>
        </mxCell>
        <mxCell id="zW1v7xUqAj8fTVgOFJWe-69" value="" style="endArrow=none;html=1;rounded=0;entryX=0;entryY=0.5;entryDx=0;entryDy=0;exitX=1;exitY=0.5;exitDx=0;exitDy=0;" parent="1" source="zW1v7xUqAj8fTVgOFJWe-1" target="zW1v7xUqAj8fTVgOFJWe-7" edge="1">
          <mxGeometry width="50" height="50" relative="1" as="geometry">
            <mxPoint x="340" y="120" as="sourcePoint" />
            <mxPoint x="390" y="70" as="targetPoint" />
          </mxGeometry>
        </mxCell>
        <mxCell id="zW1v7xUqAj8fTVgOFJWe-70" value="" style="endArrow=none;html=1;rounded=0;entryX=1;entryY=0.75;entryDx=0;entryDy=0;exitX=1;exitY=0;exitDx=0;exitDy=0;" parent="1" source="zW1v7xUqAj8fTVgOFJWe-63" target="zW1v7xUqAj8fTVgOFJWe-1" edge="1">
          <mxGeometry width="50" height="50" relative="1" as="geometry">
            <mxPoint x="340" y="120" as="sourcePoint" />
            <mxPoint x="390" y="70" as="targetPoint" />
          </mxGeometry>
        </mxCell>
        <mxCell id="zW1v7xUqAj8fTVgOFJWe-71" value="" style="endArrow=none;html=1;rounded=0;exitX=0.5;exitY=1;exitDx=0;exitDy=0;entryX=0.5;entryY=0;entryDx=0;entryDy=0;" parent="1" source="zW1v7xUqAj8fTVgOFJWe-1" target="zW1v7xUqAj8fTVgOFJWe-6" edge="1">
          <mxGeometry width="50" height="50" relative="1" as="geometry">
            <mxPoint x="340" y="120" as="sourcePoint" />
            <mxPoint x="390" y="70" as="targetPoint" />
          </mxGeometry>
        </mxCell>
        <mxCell id="zW1v7xUqAj8fTVgOFJWe-73" value="&lt;font style=&quot;font-size: 18px;&quot;&gt;title&lt;/font&gt;" style="ellipse;whiteSpace=wrap;html=1;" parent="1" vertex="1">
          <mxGeometry x="140" y="-40" width="90" height="40" as="geometry" />
        </mxCell>
        <mxCell id="zW1v7xUqAj8fTVgOFJWe-74" value="&lt;font style=&quot;font-size: 18px;&quot;&gt;timestamp&lt;/font&gt;" style="ellipse;whiteSpace=wrap;html=1;" parent="1" vertex="1">
          <mxGeometry x="40" y="-50" width="90" height="40" as="geometry" />
        </mxCell>
        <mxCell id="zW1v7xUqAj8fTVgOFJWe-75" value="" style="endArrow=none;html=1;rounded=0;entryX=0.5;entryY=1;entryDx=0;entryDy=0;exitX=0.75;exitY=0;exitDx=0;exitDy=0;" parent="1" source="zW1v7xUqAj8fTVgOFJWe-29" target="zW1v7xUqAj8fTVgOFJWe-73" edge="1">
          <mxGeometry width="50" height="50" relative="1" as="geometry">
            <mxPoint x="340" y="120" as="sourcePoint" />
            <mxPoint x="390" y="70" as="targetPoint" />
          </mxGeometry>
        </mxCell>
        <mxCell id="zW1v7xUqAj8fTVgOFJWe-76" value="" style="endArrow=none;html=1;rounded=0;entryX=0.5;entryY=1;entryDx=0;entryDy=0;exitX=0.5;exitY=0;exitDx=0;exitDy=0;" parent="1" source="zW1v7xUqAj8fTVgOFJWe-29" target="zW1v7xUqAj8fTVgOFJWe-74" edge="1">
          <mxGeometry width="50" height="50" relative="1" as="geometry">
            <mxPoint x="340" y="120" as="sourcePoint" />
            <mxPoint x="390" y="70" as="targetPoint" />
          </mxGeometry>
        </mxCell>
        <mxCell id="zW1v7xUqAj8fTVgOFJWe-78" value="&lt;font style=&quot;font-size: 18px;&quot;&gt;timestamp&lt;/font&gt;" style="ellipse;whiteSpace=wrap;html=1;" parent="1" vertex="1">
          <mxGeometry x="-110" y="385" width="90" height="40" as="geometry" />
        </mxCell>
        <mxCell id="zW1v7xUqAj8fTVgOFJWe-79" value="" style="endArrow=none;html=1;rounded=0;exitX=0.5;exitY=0;exitDx=0;exitDy=0;entryX=0;entryY=1;entryDx=0;entryDy=0;" parent="1" source="zW1v7xUqAj8fTVgOFJWe-78" target="zW1v7xUqAj8fTVgOFJWe-36" edge="1">
          <mxGeometry width="50" height="50" relative="1" as="geometry">
            <mxPoint x="210" y="205" as="sourcePoint" />
            <mxPoint x="260" y="155" as="targetPoint" />
          </mxGeometry>
        </mxCell>
        <mxCell id="zW1v7xUqAj8fTVgOFJWe-80" value="" style="endArrow=none;html=1;rounded=0;entryX=0.5;entryY=1;entryDx=0;entryDy=0;exitX=0.423;exitY=-0.006;exitDx=0;exitDy=0;exitPerimeter=0;" parent="1" source="zW1v7xUqAj8fTVgOFJWe-58" target="zW1v7xUqAj8fTVgOFJWe-36" edge="1">
          <mxGeometry width="50" height="50" relative="1" as="geometry">
            <mxPoint x="210" y="305" as="sourcePoint" />
            <mxPoint x="260" y="255" as="targetPoint" />
          </mxGeometry>
        </mxCell>
        <mxCell id="zW1v7xUqAj8fTVgOFJWe-81" value="&lt;font style=&quot;font-size: 18px;&quot;&gt;notification&lt;/font&gt;" style="rounded=0;whiteSpace=wrap;html=1;" parent="1" vertex="1">
          <mxGeometry x="70" y="180" width="120" height="60" as="geometry" />
        </mxCell>
        <mxCell id="zW1v7xUqAj8fTVgOFJWe-82" value="&lt;font style=&quot;font-size: 18px;&quot;&gt;timestamp&lt;/font&gt;" style="ellipse;whiteSpace=wrap;html=1;" parent="1" vertex="1">
          <mxGeometry x="-40" y="165" width="90" height="40" as="geometry" />
        </mxCell>
        <mxCell id="zW1v7xUqAj8fTVgOFJWe-83" value="&lt;font style=&quot;font-size: 18px;&quot;&gt;message&lt;/font&gt;" style="ellipse;whiteSpace=wrap;html=1;" parent="1" vertex="1">
          <mxGeometry x="-40" y="220" width="90" height="40" as="geometry" />
        </mxCell>
        <mxCell id="zW1v7xUqAj8fTVgOFJWe-84" value="&lt;font style=&quot;font-size: 18px;&quot;&gt;notify&lt;/font&gt;" style="rhombus;whiteSpace=wrap;html=1;" parent="1" vertex="1">
          <mxGeometry x="240" y="180" width="60" height="60" as="geometry" />
        </mxCell>
        <mxCell id="zW1v7xUqAj8fTVgOFJWe-85" value="" style="endArrow=none;html=1;rounded=0;exitX=1;exitY=0.5;exitDx=0;exitDy=0;entryX=0;entryY=0.5;entryDx=0;entryDy=0;" parent="1" source="zW1v7xUqAj8fTVgOFJWe-81" target="zW1v7xUqAj8fTVgOFJWe-84" edge="1">
          <mxGeometry width="50" height="50" relative="1" as="geometry">
            <mxPoint x="390" y="240" as="sourcePoint" />
            <mxPoint x="440" y="190" as="targetPoint" />
          </mxGeometry>
        </mxCell>
        <mxCell id="zW1v7xUqAj8fTVgOFJWe-86" value="" style="endArrow=none;html=1;rounded=0;exitX=1;exitY=0.5;exitDx=0;exitDy=0;entryX=0;entryY=0.75;entryDx=0;entryDy=0;" parent="1" source="zW1v7xUqAj8fTVgOFJWe-84" target="zW1v7xUqAj8fTVgOFJWe-1" edge="1">
          <mxGeometry width="50" height="50" relative="1" as="geometry">
            <mxPoint x="390" y="240" as="sourcePoint" />
            <mxPoint x="440" y="190" as="targetPoint" />
          </mxGeometry>
        </mxCell>
        <mxCell id="zW1v7xUqAj8fTVgOFJWe-88" value="&lt;font style=&quot;font-size: 18px;&quot;&gt;(1,1)&lt;/font&gt;" style="text;html=1;strokeColor=none;fillColor=none;align=center;verticalAlign=middle;whiteSpace=wrap;rounded=0;" parent="1" vertex="1">
          <mxGeometry x="200" y="175" width="60" height="30" as="geometry" />
        </mxCell>
        <mxCell id="zW1v7xUqAj8fTVgOFJWe-89" value="&lt;font style=&quot;font-size: 18px;&quot;&gt;(0,*)&lt;/font&gt;" style="text;html=1;strokeColor=none;fillColor=none;align=center;verticalAlign=middle;whiteSpace=wrap;rounded=0;" parent="1" vertex="1">
          <mxGeometry x="290" y="175" width="60" height="30" as="geometry" />
        </mxCell>
        <mxCell id="zW1v7xUqAj8fTVgOFJWe-91" value="&lt;font style=&quot;font-size: 18px;&quot;&gt;observe&lt;/font&gt;" style="rhombus;whiteSpace=wrap;html=1;" parent="1" vertex="1">
          <mxGeometry x="70" y="110" width="80" height="60" as="geometry" />
        </mxCell>
        <mxCell id="zW1v7xUqAj8fTVgOFJWe-92" value="&lt;font style=&quot;font-size: 18px;&quot;&gt;(0,1)&lt;/font&gt;" style="text;html=1;strokeColor=none;fillColor=none;align=center;verticalAlign=middle;whiteSpace=wrap;rounded=0;" parent="1" vertex="1">
          <mxGeometry x="40" y="150" width="60" height="30" as="geometry" />
        </mxCell>
        <mxCell id="zW1v7xUqAj8fTVgOFJWe-93" value="" style="endArrow=none;html=1;rounded=0;entryX=1;entryY=1;entryDx=0;entryDy=0;exitX=0.5;exitY=0;exitDx=0;exitDy=0;" parent="1" source="zW1v7xUqAj8fTVgOFJWe-81" target="zW1v7xUqAj8fTVgOFJWe-91" edge="1">
          <mxGeometry width="50" height="50" relative="1" as="geometry">
            <mxPoint x="390" y="240" as="sourcePoint" />
            <mxPoint x="440" y="190" as="targetPoint" />
          </mxGeometry>
        </mxCell>
        <mxCell id="zW1v7xUqAj8fTVgOFJWe-94" value="" style="endArrow=none;html=1;rounded=0;entryX=0.5;entryY=1;entryDx=0;entryDy=0;exitX=1;exitY=0;exitDx=0;exitDy=0;" parent="1" source="zW1v7xUqAj8fTVgOFJWe-91" target="zW1v7xUqAj8fTVgOFJWe-29" edge="1">
          <mxGeometry width="50" height="50" relative="1" as="geometry">
            <mxPoint x="390" y="240" as="sourcePoint" />
            <mxPoint x="440" y="190" as="targetPoint" />
          </mxGeometry>
        </mxCell>
        <mxCell id="zW1v7xUqAj8fTVgOFJWe-95" value="&lt;font style=&quot;font-size: 18px;&quot;&gt;(0,*)&lt;/font&gt;" style="text;html=1;strokeColor=none;fillColor=none;align=center;verticalAlign=middle;whiteSpace=wrap;rounded=0;" parent="1" vertex="1">
          <mxGeometry x="200" y="80" width="60" height="30" as="geometry" />
        </mxCell>
        <mxCell id="zW1v7xUqAj8fTVgOFJWe-96" value="&lt;font style=&quot;font-size: 18px;&quot;&gt;observe&lt;/font&gt;" style="rhombus;whiteSpace=wrap;html=1;" parent="1" vertex="1">
          <mxGeometry x="70" y="245" width="80" height="60" as="geometry" />
        </mxCell>
        <mxCell id="zW1v7xUqAj8fTVgOFJWe-97" value="" style="endArrow=none;html=1;rounded=0;exitX=1;exitY=0;exitDx=0;exitDy=0;entryX=0;entryY=1;entryDx=0;entryDy=0;" parent="1" source="zW1v7xUqAj8fTVgOFJWe-36" target="zW1v7xUqAj8fTVgOFJWe-96" edge="1">
          <mxGeometry width="50" height="50" relative="1" as="geometry">
            <mxPoint x="390" y="240" as="sourcePoint" />
            <mxPoint x="440" y="190" as="targetPoint" />
          </mxGeometry>
        </mxCell>
        <mxCell id="zW1v7xUqAj8fTVgOFJWe-98" value="" style="endArrow=none;html=1;rounded=0;exitX=1;exitY=0;exitDx=0;exitDy=0;entryX=0.5;entryY=1;entryDx=0;entryDy=0;" parent="1" source="zW1v7xUqAj8fTVgOFJWe-96" target="zW1v7xUqAj8fTVgOFJWe-81" edge="1">
          <mxGeometry width="50" height="50" relative="1" as="geometry">
            <mxPoint x="390" y="240" as="sourcePoint" />
            <mxPoint x="440" y="190" as="targetPoint" />
          </mxGeometry>
        </mxCell>
        <mxCell id="zW1v7xUqAj8fTVgOFJWe-99" value="&lt;font style=&quot;font-size: 18px;&quot;&gt;(0,1)&lt;/font&gt;" style="text;html=1;strokeColor=none;fillColor=none;align=center;verticalAlign=middle;whiteSpace=wrap;rounded=0;" parent="1" vertex="1">
          <mxGeometry x="130" y="245" width="60" height="30" as="geometry" />
        </mxCell>
        <mxCell id="zW1v7xUqAj8fTVgOFJWe-102" value="&lt;font style=&quot;font-size: 18px;&quot;&gt;(0,*)&lt;/font&gt;" style="text;html=1;strokeColor=none;fillColor=none;align=center;verticalAlign=middle;whiteSpace=wrap;rounded=0;" parent="1" vertex="1">
          <mxGeometry x="60" y="300" width="60" height="30" as="geometry" />
        </mxCell>
        <mxCell id="zW1v7xUqAj8fTVgOFJWe-103" value="" style="endArrow=none;html=1;rounded=0;entryX=1;entryY=0.5;entryDx=0;entryDy=0;exitX=0;exitY=0.25;exitDx=0;exitDy=0;" parent="1" source="zW1v7xUqAj8fTVgOFJWe-81" target="zW1v7xUqAj8fTVgOFJWe-82" edge="1">
          <mxGeometry width="50" height="50" relative="1" as="geometry">
            <mxPoint x="390" y="240" as="sourcePoint" />
            <mxPoint x="440" y="190" as="targetPoint" />
          </mxGeometry>
        </mxCell>
        <mxCell id="zW1v7xUqAj8fTVgOFJWe-104" value="" style="endArrow=none;html=1;rounded=0;exitX=1;exitY=0;exitDx=0;exitDy=0;entryX=0;entryY=0.5;entryDx=0;entryDy=0;" parent="1" source="zW1v7xUqAj8fTVgOFJWe-83" target="zW1v7xUqAj8fTVgOFJWe-81" edge="1">
          <mxGeometry width="50" height="50" relative="1" as="geometry">
            <mxPoint x="390" y="240" as="sourcePoint" />
            <mxPoint x="440" y="190" as="targetPoint" />
          </mxGeometry>
        </mxCell>
        <mxCell id="zW1v7xUqAj8fTVgOFJWe-105" value="&lt;font style=&quot;font-size: 18px;&quot;&gt;icon(&lt;u&gt;id&lt;/u&gt;, filename)&lt;/font&gt;" style="text;html=1;strokeColor=none;fillColor=none;align=left;verticalAlign=middle;whiteSpace=wrap;rounded=0;" parent="1" vertex="1">
          <mxGeometry x="840" y="65" width="400" height="30" as="geometry" />
        </mxCell>
        <mxCell id="zW1v7xUqAj8fTVgOFJWe-106" value="&lt;font style=&quot;font-size: 18px;&quot;&gt;user(&lt;u&gt;id&lt;/u&gt;, realname, description, dateOfBirth, username, salt, ierations, hashedPassword. *icon_id)&lt;/font&gt;" style="text;html=1;strokeColor=none;fillColor=none;align=left;verticalAlign=middle;whiteSpace=wrap;rounded=0;" parent="1" vertex="1">
          <mxGeometry x="840" y="110" width="470" height="30" as="geometry" />
        </mxCell>
        <mxCell id="zW1v7xUqAj8fTVgOFJWe-107" value="&lt;font style=&quot;font-size: 18px;&quot;&gt;subscribe(*&lt;u&gt;subscribed_id&lt;/u&gt;, *&lt;u&gt;blogger_id&lt;/u&gt;)&lt;/font&gt;" style="text;html=1;strokeColor=none;fillColor=none;align=left;verticalAlign=middle;whiteSpace=wrap;rounded=0;" parent="1" vertex="1">
          <mxGeometry x="840" y="160" width="400" height="30" as="geometry" />
        </mxCell>
        <mxCell id="zW1v7xUqAj8fTVgOFJWe-108" value="&lt;font style=&quot;font-size: 18px;&quot;&gt;article(&lt;u&gt;id&lt;/u&gt;, title, content, timestamp, *writer_id)&lt;/font&gt;" style="text;html=1;strokeColor=none;fillColor=none;align=left;verticalAlign=middle;whiteSpace=wrap;rounded=0;" parent="1" vertex="1">
          <mxGeometry x="840" y="190" width="400" height="30" as="geometry" />
        </mxCell>
        <mxCell id="zW1v7xUqAj8fTVgOFJWe-109" value="&lt;font style=&quot;font-size: 18px;&quot;&gt;like(*&lt;u&gt;user_id, *article_id&lt;/u&gt;)&lt;/font&gt;" style="text;html=1;strokeColor=none;fillColor=none;align=left;verticalAlign=middle;whiteSpace=wrap;rounded=0;" parent="1" vertex="1">
          <mxGeometry x="841" y="220" width="400" height="30" as="geometry" />
        </mxCell>
        <mxCell id="zW1v7xUqAj8fTVgOFJWe-110" value="&lt;font style=&quot;font-size: 18px;&quot;&gt;comments(&lt;u&gt;id&lt;/u&gt;, content, timestamp, *parent_id, *article_id, * user_id)&lt;/font&gt;" style="text;html=1;strokeColor=none;fillColor=none;align=left;verticalAlign=middle;whiteSpace=wrap;rounded=0;" parent="1" vertex="1">
          <mxGeometry x="841" y="250" width="549" height="30" as="geometry" />
        </mxCell>
        <mxCell id="zW1v7xUqAj8fTVgOFJWe-111" value="&lt;font style=&quot;font-size: 18px;&quot;&gt;notication(&lt;u&gt;id&lt;/u&gt;, timestamp, isRead, message, *comments_id, *article_id, * user_id)&lt;/font&gt;" style="text;html=1;strokeColor=none;fillColor=none;align=left;verticalAlign=middle;whiteSpace=wrap;rounded=0;" parent="1" vertex="1">
          <mxGeometry x="840" y="290" width="469" height="30" as="geometry" />
        </mxCell>
        <mxCell id="CiQzTlFeWk-HE9Z-1lOc-1" value="&lt;font style=&quot;font-size: 18px;&quot;&gt;content&lt;/font&gt;" style="ellipse;whiteSpace=wrap;html=1;" vertex="1" parent="1">
          <mxGeometry x="-50" y="-30" width="80" height="50" as="geometry" />
        </mxCell>
        <mxCell id="CiQzTlFeWk-HE9Z-1lOc-2" value="&lt;font style=&quot;font-size: 18px;&quot;&gt;content&lt;/font&gt;" style="ellipse;whiteSpace=wrap;html=1;" vertex="1" parent="1">
          <mxGeometry x="-160" y="295" width="80" height="50" as="geometry" />
        </mxCell>
        <mxCell id="CiQzTlFeWk-HE9Z-1lOc-3" value="" style="endArrow=none;html=1;rounded=0;exitX=1;exitY=1;exitDx=0;exitDy=0;entryX=0.25;entryY=0;entryDx=0;entryDy=0;" edge="1" parent="1" source="CiQzTlFeWk-HE9Z-1lOc-1" target="zW1v7xUqAj8fTVgOFJWe-29">
          <mxGeometry width="50" height="50" relative="1" as="geometry">
            <mxPoint x="300" y="230" as="sourcePoint" />
            <mxPoint x="350" y="180" as="targetPoint" />
          </mxGeometry>
        </mxCell>
        <mxCell id="CiQzTlFeWk-HE9Z-1lOc-4" value="" style="endArrow=none;html=1;rounded=0;exitX=1;exitY=0;exitDx=0;exitDy=0;entryX=0;entryY=0.5;entryDx=0;entryDy=0;" edge="1" parent="1" source="CiQzTlFeWk-HE9Z-1lOc-2" target="zW1v7xUqAj8fTVgOFJWe-36">
          <mxGeometry width="50" height="50" relative="1" as="geometry">
            <mxPoint x="300" y="230" as="sourcePoint" />
            <mxPoint x="350" y="180" as="targetPoint" />
          </mxGeometry>
        </mxCell>
      </root>
    </mxGraphModel>
  </diagram>
</mxfile>
